<svg width="16" height="18" fill="none" xmlns="http://www.w3.org/2000/svg"><path clip-rule="evenodd" d="M1 7v6a4 4 0 004 4h6a4 4 0 004-4V7a4 4 0 00-4-4H5a4 4 0 00-4 4z" stroke="#F4520D" stroke-width="1.5" stroke-linecap="round" stroke-linejoin="round"/><path d="M9.25 4a.75.75 0 001.5 0h-1.5zm1.5-3a.75.75 0 00-1.5 0h1.5zm-5.5 3a.75.75 0 001.5 0h-1.5zm1.5-3a.75.75 0 00-1.5 0h1.5zM11 7.75a.75.75 0 000-1.5v1.5zm-6-1.5a.75.75 0 000 1.5v-1.5zm6 4.5a.75.75 0 000-1.5v1.5zm-6-1.5a.75.75 0 000 1.5v-1.5zm3 4.5a.75.75 0 000-1.5v1.5zm-3-1.5a.75.75 0 000 1.5v-1.5zM10.75 4V1h-1.5v3h1.5zm-4 0V1h-1.5v3h1.5zM11 6.25H5v1.5h6v-1.5zm0 3H5v1.5h6v-1.5zm-3 3H5v1.5h3v-1.5z" fill="#F4520D"/></svg>