<svg width="21" height="20" fill="none" xmlns="http://www.w3.org/2000/svg"><g clip-path="url(#clip0_104_391)" fill="#F4510C"><path d="M14.966 0h-8.38a5.816 5.816 0 00-5.81 5.81v8.38A5.816 5.816 0 006.586 20h8.38a5.816 5.816 0 005.81-5.81V5.81A5.816 5.816 0 0014.966 0zm4.248 14.19a4.252 4.252 0 01-4.247 4.247h-8.38a4.252 4.252 0 01-4.248-4.247V5.81a4.252 4.252 0 014.247-4.247h8.38a4.252 4.252 0 014.248 4.247v8.38z"/><path d="M10.779 4.61a5.393 5.393 0 100 10.786 5.393 5.393 0 000-10.787zm0 9.218a3.828 3.828 0 11-.004-7.656 3.828 3.828 0 01.004 7.656zm5.526-8.435c.558 0 1.01-.302 1.01-.674 0-.372-.452-.674-1.01-.674-.559 0-1.011.302-1.011.674 0 .372.452.674 1.01.674z"/></g><defs><clipPath id="clip0_104_391"><path fill="#fff" transform="translate(.776)" d="M0 0h20v20H0z"/></clipPath></defs></svg>