<svg width="17" height="16" fill="none" xmlns="http://www.w3.org/2000/svg"><path d="M15.25 5.029a.75.75 0 101.5-.053l-1.5.053zm-3.536-4.027v.75a.75.75 0 00.025 0l-.025-.75zm-6.428 0l-.025.75h.025v-.75zM.25 4.976a.75.75 0 001.5.053l-1.5-.053zm16.5.026a.75.75 0 00-1.5 0h1.5zm-.75 6l.75.027v-.027H16zm-4.286 4l.025-.75a.7.7 0 00-.025 0v.75zm-6.428 0v-.75h-.025l.025.75zm-4.286-4H.25a.74.74 0 000 .027l.75-.027zm.75-6a.75.75 0 00-1.5 0h1.5zm14.628.648a.75.75 0 10-.756-1.295l.756 1.295zm-5.642 2.427l-.378-.647-.007.003.385.644zm-4.472 0l.385-.644-.007-.003-.378.647zM1.378 4.355A.75.75 0 00.622 5.65l.756-1.295zm15.372.62A4.9 4.9 0 0011.689.254l.05 1.499A3.4 3.4 0 0115.25 5.03l1.5-.053zM11.714.253H5.286v1.5h6.428v-1.5zm-6.403 0a4.9 4.9 0 00-5.06 4.724l1.499.053a3.4 3.4 0 013.51-3.278l.05-1.5zm9.939 4.75v6h1.5v-6h-1.5zm0 5.974a3.4 3.4 0 01-3.51 3.277l-.051 1.499a4.9 4.9 0 005.06-4.723l-1.498-.053zm-3.536 3.276H5.286v1.5h6.428v-1.5zm-6.453 0a3.4 3.4 0 01-3.511-3.276l-1.5.053a4.9 4.9 0 005.061 4.723l-.05-1.5zm-3.511-3.25v-6H.25v6h1.5zm13.872-6.647L10.358 7.43l.756 1.295 5.264-3.075-.756-1.295zm-5.27 3.078a3.611 3.611 0 01-3.703 0l-.77 1.288a5.11 5.11 0 005.242 0l-.77-1.288zm-3.71-.003L1.378 4.355.622 5.65l5.264 3.075.756-1.295z" fill="#F4510C"/></svg>