<svg width="17" height="16" fill="none" xmlns="http://www.w3.org/2000/svg"><path clip-rule="evenodd" d="M2.19 2.358c.88-.927 1.192-1.187 1.567-1.308.26-.068.531-.072.793-.01.344.1.435.175 1.563 1.3.99.986 1.09 1.093 1.185 1.286.181.339.21.74.078 1.1-.1.275-.242.457-.843 1.06l-.392.393a.34.34 0 00-.06.394 10.123 10.123 0 003.59 3.6c.17.092.38.062.52-.073l.377-.37c.233-.24.48-.465.739-.675.407-.25.914-.272 1.342-.059.209.1.278.162 1.3 1.182 1.054 1.051 1.084 1.084 1.2 1.325.218.4.216.882-.006 1.28-.113.223-.182.304-.775.91-.358.366-.695.7-.75.75a2.443 2.443 0 01-1.75.553 7.964 7.964 0 01-3.284-1.049 15.082 15.082 0 01-5.514-5c-.303-.44-.573-.901-.806-1.382a6.872 6.872 0 01-.936-3.54c.047-.65.36-1.252.863-1.667z" stroke="#F4510C" stroke-width="1.5" stroke-linecap="round" stroke-linejoin="round"/></svg>