<svg width="23" height="14" fill="none" xmlns="http://www.w3.org/2000/svg"><g clip-path="url(#clip0_104_389)"><path d="M11.91 13.655c3.182 0 2.047-2 2.293-2.576-.004-.43-.008-.844.007-1.094a4.88 4.88 0 011.66 1.244c1.517 1.52 1.905 2.426 3.13 2.426h2.256a1.503 1.503 0 001.274-.54 1.41 1.41 0 00.163-1.31c-.504-1.569-3.438-4.279-3.621-4.564.027-.053.072-.123.094-.16.58-.76 2.79-4.05 3.116-5.366v-.007A1.303 1.303 0 0022.13.497 1.396 1.396 0 0020.94 0h-2.257a1.676 1.676 0 00-.983.275 1.642 1.642 0 00-.635.792c-.485 1.224-1.847 3.742-2.867 4.633a57.775 57.775 0 01.007-2.942c.032-1.4.138-2.758-1.322-2.758H9.337c-.915 0-1.792.993-.843 2.17.83 1.033.299 1.608.478 4.472A16.71 16.71 0 016.16 1.335C5.913.643 5.541 0 4.494 0H2.238a1.305 1.305 0 00-1.045.324 1.275 1.275 0 00-.417 1.001c0 1.862 4.152 12.33 11.133 12.33zM4.493 1.367c.198 0 .219 0 .366.416.896 2.625 2.91 6.508 4.38 6.508 1.105 0 1.105-1.124 1.105-1.548v-3.37a3.207 3.207 0 00-.738-2.006l3.215.003c0 .016-.018 3.728.01 4.627 0 1.277 1.02 2.007 2.615.407a19.438 19.438 0 002.891-4.818c.07-.164.129-.22.345-.22h2.265v.009c-.206.956-2.242 4.002-2.923 4.947l-.031.046a1.355 1.355 0 00.042 1.776c.053.063.192.213.393.42.627.643 2.778 2.84 2.968 3.714-.126.02-.264.006-2.395.01-.454 0-.809-.673-2.163-2.03-1.217-1.176-2.007-1.657-2.726-1.657-1.397 0-1.296 1.126-1.283 2.488.005 1.476-.005 1.01.006 1.103a2.78 2.78 0 01-.925.095C6.09 12.29 2.305 3.122 2.16 1.37c.05-.005.744 0 2.334 0v-.002z" fill="#F4510C"/></g><defs><clipPath id="clip0_104_389"><path fill="#fff" transform="translate(.776)" d="M0 0h22v13.655H0z"/></clipPath></defs></svg>