<svg width="16" height="18" fill="none" xmlns="http://www.w3.org/2000/svg"><path clip-rule="evenodd" d="M5.308 1.5h5.521c.057 0 .114.004.171.011a4.3 4.3 0 014 4.275v6.429a4.3 4.3 0 01-4.308 4.285H5.308A4.3 4.3 0 011 12.214V5.786A4.3 4.3 0 015.308 1.5z" stroke="#F4520D" stroke-width="1.5" stroke-linecap="round" stroke-linejoin="round"/><path d="M15 6.536a.75.75 0 000-1.5v1.5zm-4-.75h-.75c0 .414.336.75.75.75v-.75zm.75-4.275a.75.75 0 00-1.5 0h1.5zM10 10.25a.75.75 0 000-1.5v1.5zm-6-1.5a.75.75 0 100 1.5v-1.5zm3-1.5a.75.75 0 000-1.5v1.5zm-3-1.5a.75.75 0 100 1.5v-1.5zm7 7.5a.75.75 0 000-1.5v1.5zm-7-1.5a.75.75 0 000 1.5v-1.5zm11-6.714h-4v1.5h4v-1.5zm-3.25.75V1.511h-1.5v4.275h1.5zM10 8.75H4v1.5h6v-1.5zm-3-3H4v1.5h3v-1.5zm4 6H4v1.5h7v-1.5z" fill="#F4520D"/></svg>