<svg xmlns="http://www.w3.org/2000/svg" width="18.622" height="15.802" viewBox="0 0 18.622 15.802">
  <path id="Контур_28" data-name="Контур 28" d="M5294.371,3956.334a1.532,1.532,0,0,0-1.787-.343l-15.483,5.91c-.917.35-1.04.9-1.032,1.2s.162.838,1.118,1.142l3.129.9,1.708,4.886a1.661,1.661,0,0,0,1.544,1.208,1.8,1.8,0,0,0,1.222-.516l1.882-1.733,2.77,2.231.039.03a1.823,1.823,0,0,0,1.112.415,1.58,1.58,0,0,0,1.516-1.39l2.536-12.527A1.656,1.656,0,0,0,5294.371,3956.334Zm-8.8,11.756-1.4,1.292.5-2.02Zm1.374-5.85-3.205,3.405a.706.706,0,0,0-.171.313l-.61,2.474-1.233-3.526Zm3.792-1.984a.7.7,0,0,0-.83-1.1l-9.118,4.658-2.716-.777,15.015-5.732a.64.64,0,0,1,.2-.047.666.666,0,0,1-.015.206l-2.537,12.526c-.034.167-.1.267-.141.267a.472.472,0,0,1-.247-.116l-5.07-4.082Z" transform="translate(-5276.068 -3955.853)" fill="#F4510C"/>
</svg>
